<svg version="1.2" xmlns="http://www.w3.org/2000/svg" viewBox="0 0 500 403" width="500" height="403">
	<defs>
		<linearGradient id="g1" x2="1" gradientUnits="userSpaceOnUse" gradientTransform="matrix(90.402,-286.822,238.019,75.02,130.15,309.363)">
			<stop offset="0" stop-color="#042743"/>
			<stop offset="1" stop-color="#1d5d71"/>
		</linearGradient>
		<linearGradient id="g2" x2="1" gradientUnits="userSpaceOnUse" gradientTransform="matrix(106.891,-247.032,234.097,101.294,244.744,357.977)">
			<stop offset="0" stop-color="#0d2e45"/>
			<stop offset="1" stop-color="#20546c"/>
		</linearGradient>
	</defs>
	<style>
		.s0 { fill: #44c1c0 } 
		.s1 { fill: #3b8cb8 } 
		.s2 { fill: url(#g1) } 
		.s3 { fill: #81d29d } 
		.s4 { fill: url(#g2) } 
	</style>
	<path class="s0" d="m285.53 134.36c3.63-0.38 10.87-0.32 14.64 0 25.67 2.48 46.34 13.19 63.56 32.23 36.22 40.01 31.61 104.01-8.29 139.69-12.22 10.92-32.32 19.35-48.32 22.34-7.6 1.42-18.36 0.41-26.17 0.37-5.84-0.22-12.04-1.94-17.54-3.76-17.03-5.48-32.26-15.49-44.03-28.96-13.89-15.33-21.92-36.78-23.1-57.28-0.52-9.05 1.16-9.22 8.42-14.26 4.89-3.39 9.91-6.61 15.5-8.74 5.61 11.03 7.2 20.95 17.39 29.32 9.37 7.69 17.73 9.34 29.56 8.57 4.52-0.29 7.16-0.56 11.49-2.36 9.49-3.85 17.05-11.33 21-20.78 8.63-20.98-1.03-45.26-22.28-53.7-13.39-5.31-27.28-1.73-39.97 3.65-1.62-3.82-3.97-21.93-3.33-26.29 13.69-10.38 34.27-18.86 51.47-20.04z"/>
	<path class="s1" d="m324.4 253.84q0.13-0.02 0.25-0.05c22.98-2.61 33.95 17.19 19.4 35.37-7.81 9.75-17.54 14.43-29.74 16.03-6.43 0.52-14.92-0.12-19.98-4.29-3.01-2.33-6.15-6.89-6.27-10.91-0.52-18.33 20.03-34.26 36.34-36.15z"/>
	<path class="s1" d="m334.16 173.06c4.08-0.29 7.74 0.94 11.1 3.25 3.88 2.72 6.5 6.89 7.27 11.56 1.4 8.07-3.99 15.04-11.98 16.35-9.42 0.33-16.79-4.22-18.53-13.77-1.64-8.98 3.32-15.94 12.14-17.39z"/>
	<path class="s2" d="m205.44 19.36c19.01-0.62 34.95 13.74 36.93 32.58 0.92 9.6-1.95 19.18-7.99 26.7-9.38 11.54-17.78 12.2-31.1 13.57-1.39 8.52-3.8 16.79-6 25.12-0.62 2.34-1.55 5.12-1.75 7.51 0.45 1.33 1.96 1.95 3.11 2.72 4.85 3.26 8.95 6.96 12.77 11.32 7.14 7.96 10.26 17.55 11.25 28.01 0.58 6.14 0.25 10.09-0.97 16.12-0.17 0.82 0.11 1.65 0.76 2.23 2.73 2.4 6.26 3.88 9.49 5.48 2.64 1.03 6.9 3.57 9.73 3.7 3.82 0.18 8.89-4.7 12.83-5.78 3.36-0.91 4.77-1.14 8.13-1.26 7.63-0.28 13.79 2.68 19.12 7.99 5.29 5.21 8.29 12.33 8.31 19.76 0.02 14.68-12.36 27.65-27.06 27.04-8.2-0.33-13.92-2.09-19.84-8.06-6.75-6.81-7.94-14.45-7.9-23.53-2.12-1.82-19.49-12.27-20.81-10.66-8.69 10.6-17.59 16.98-31.05 20.29-12.76 3.14-24.01 0.95-35.4-5.35-7.52 6.48-14.84 16.64-20.81 24.66 16.15 20.78 5.72 53.81-21.63 58.15-4.24 0.58-10.21 0.5-14.37-0.28-9-1.69-16.95-6.93-22.07-14.52-17.86-26.38 5-63.09 36.75-55.77 3.43 0.79 6.88 1.92 10.3 2.6 1.71-1.9 3.81-5.29 5.54-7.41 4.57-5.6 9.33-12.18 14.13-17.52-3.47-3.71-6.41-7.88-8.73-12.4-6.49-12.92-5.56-28.06-1.13-41.47-0.85-0.41-1.79-1.04-2.57-1.58-5.82-3.97-12.08-7.23-17.99-11.04-6.53 4.97-10.69 7-19.17 7.06-23.83 0.17-34.21-29.8-17.72-45.73 10.51-10.16 27.82-9.6 37.8 1.41 7.4 8.17 6.49 14.59 6.14 24.7 5.81 3.91 14.59 9.32 21.11 12.22 0.37 0.17 1.06-0.12 1.31-0.39 10.47-11.34 30.37-20.3 45.97-16.35 1.93-6.34 3.25-13.33 4.94-19.78 1.06-4.04 2.16-9.23 4.06-12.95-2.71-1.85-5.32-3.65-7.75-5.86-18.6-16.92-14.4-49.34 8.86-59.97 4.98-2.28 9.12-3.01 14.47-3.28z"/>
	<path class="s1" d="m170.66 135.22c19.79-1.27 36.88 13.71 38.21 33.5 1.33 19.79-13.6 36.93-33.38 38.32-19.88 1.41-37.11-13.61-38.45-33.48-1.33-19.88 13.73-37.07 33.62-38.34z"/>
	<path class="s3" d="m203.12 34c11.91-2.01 23.2 6 25.25 17.9 2.06 11.9-5.9 23.23-17.8 25.33-11.96 2.11-23.36-5.9-25.43-17.88-2.06-11.97 6-23.34 17.98-25.35z"/>
	<path class="s0" d="m96.77 240.77c11.97-1.37 22.77 7.25 24.1 19.22 1.34 11.98-7.31 22.76-19.29 24.06-11.93 1.3-22.67-7.31-23.99-19.24-1.33-11.93 7.25-22.69 19.18-24.04z"/>
	<path class="s3" d="m261.1 202.36c6.6-0.8 12.63 3.86 13.52 10.45 0.89 6.6-3.69 12.68-10.27 13.66-4.34 0.64-8.69-1.1-11.38-4.56-2.7-3.45-3.32-8.09-1.64-12.14 1.68-4.05 5.41-6.88 9.77-7.41z"/>
	<path class="s3" d="m84.88 107.53c4.15-0.76 8.38 0.76 11.1 3.99 2.71 3.23 3.48 7.67 2.01 11.62-1.46 3.96-4.94 6.82-9.11 7.5-6.34 1.03-12.33-3.24-13.43-9.57-1.1-6.34 3.11-12.37 9.43-13.54z"/>
	<path class="s4" d="m288.71 96.86c38.64-1.43 77.15 15.49 102.97 44.13 17.7 19.63 29.7 46.32 33.46 72.41 1.38 9.54 0.93 19.87 0.68 29.49-2.11 34.61-19.76 68.43-45.65 91.29-20.6 17.92-46.17 29.13-73.3 32.16-67.52 7.24-129.57-37.08-144.82-103.58-2.59-11.3-3.27-18.52-2.52-30.09l14.44 2.01c0.4 15.17 3.18 27.46 8.51 41.72 2.71 6.6 4.87 11.11 8.56 17.34 15.88 27.06 41.93 46.65 72.34 54.39 30.12 7.4 61.93 2.75 88.68-12.94 34.96-20.83 57.29-59.27 58.29-99.76 0.59-23.55-4.19-44.72-16.35-65.13-11.54-19.39-27.48-34.3-47.26-45.08-8.53-4.63-16.72-7.29-26.06-9.61-25.39-6.22-52.12-3.75-75.94 7.01-7.42 3.37-14.48 7.77-21.47 11.97-1.87-3-7.75-8.32-10.54-11.1 2.95-2.18 4.81-4.13 8.2-6.23 20.77-12.81 43.56-19.58 67.78-20.4z"/>
</svg>